Coordinates
version=1
nRows=19
nColumns=33
inDegrees=yes

Units are S.I. units (second, meters, Newtons, ...)
Angles are in degrees.

endheader
time	ground_thorax_rot_x	ground_thorax_rot_y	ground_thorax_rot_z	ground_thorax_tx	ground_thorax_ty	ground_thorax_tz	clav_prot_r	clav_elev_r	scapula_abduction_r	scapula_elevation_r	scapula_upward_rot_r	scapula_winging_r	shoulder_elv_r	plane_of_elev_r	axial_rot_r	elbow_flexion_r	pro_sup_r	wrist_flex_r	wrist_dev_r	clav_prot_l	clav_elev_l	scapula_abduction_l	scapula_elevation_l	scapula_upward_rot_l	scapula_winging_l	shoulder_elv_l	plane_of_elev_l	axial_rot_l	elbow_flexion_l	pro_sup_l	wrist_flex_l	wrist_dev_l
      0.98000000	    -42.72070439	     -2.44827572	      1.75951377	    -58.97488764	    789.77725219	     -6.59248182	      6.70949248	    -45.00000000	     45.00000000	    -45.00000000	    -14.51682620	  -2244.58721026	  -1909.23037445	    145.62163430	    179.99999979	    365.99219331	     47.21791406	     20.06778445	     14.05668204	     15.32319326	     45.00000000	    -45.00000000	    -44.70513298	    -16.93708368	   1877.64971937	  -4611.07597464	     31.19750425	     24.47312822	   -718.73864523	     36.08111380	     11.45791972	    -19.23714494
      0.99000000	    -42.77590650	     -2.08520445	      1.47048213	    -60.80447260	    790.27905544	     -6.61478408	      6.54413511	    -45.00000000	     45.00000000	    -45.00000000	    -14.33899509	  -2244.73739498	  -1908.98545091	    145.54366984	    179.99999979	    366.21564224	     46.66853363	     19.84171402	     13.96985720	     14.50743073	     45.00000000	    -45.00000000	    -44.66989787	    -15.75574585	   1878.27247062	  -4611.42600303	     31.06144430	     23.83531076	   -718.62654152	     36.26136765	     11.43789626	    -19.55188412
      1.00000000	    -42.84689604	     -1.94959634	      1.52046445	    -62.85522090	    790.85934850	     -6.62534705	      6.51681497	    -45.00000000	     45.00000000	    -45.00000000	    -14.40736286	  -2244.98113259	  -1908.77806715	    145.53622402	    179.99999979	    366.41115204	     46.34760569	     19.97622081	     13.91844700	     14.39740818	     45.00000000	    -45.00000000	    -44.81626725	    -15.71298719	   1878.56472908	  -4611.45182995	     30.96627557	     23.20457087	   -718.29843556	     36.13672607	     11.35797046	    -19.69404450
      1.01000000	    -42.97224759	     -1.95657097	      1.66674955	    -65.12417301	    791.52831226	     -6.62270949	      6.50213315	    -45.00000000	     45.00000000	    -45.00000000	    -14.68630543	  -2245.27782549	  -1908.65015986	    145.49569111	    179.99999979	    366.72291809	     46.18844756	     20.09565018	     13.82598772	     14.30404735	     44.98277148	    -45.00000000	    -45.00000000	    -15.71090225	   1878.98606833	  -4611.52978023	     30.82882124	     22.74778596	   -717.90728532	     35.78843453	     11.31331049	    -19.87922148
      1.02000000	    -42.93187443	     -1.92079323	      1.90378322	    -67.61809510	    792.29157522	     -6.60766524	      6.56867752	    -45.00000000	     45.00000000	    -45.00000000	    -15.01247320	  -2245.58742759	  -1908.24124707	    145.45195683	    179.99999979	    366.89587034	     46.11266271	     20.18597266	     13.69663773	     14.41599319	     45.00000000	    -45.00000000	    -45.00000000	    -16.20628483	   1879.15719952	  -4611.22850752	     30.84985871	     22.37987676	   -717.73643890	     35.30644479	     11.25922183	    -19.95360277
      1.03000000	    -42.87672102	     -2.37351081	      2.67259348	    -70.32196039	    793.14783030	     -6.58168627	      7.02240864	    -45.00000000	     45.00000000	    -45.00000000	    -16.08279089	  -2245.88990109	  -1907.78262717	    145.50598039	    179.99999979	    367.22013210	     46.04434585	     20.17478716	     13.47066392	     15.18043734	     45.00000000	    -45.00000000	    -45.00000000	    -17.94540825	   1879.10097365	  -4610.56846837	     30.80498679	     22.10907173	   -717.30835768	     34.27950267	     11.08253431	    -19.85680618
      1.04000000	    -42.95511627	     -2.13320362	      2.51642212	    -73.22305789	    794.09574849	     -6.54810485	      6.66915870	    -45.00000000	     45.00000000	    -45.00000000	    -16.08940785	  -2246.36588313	  -1907.61216146	    145.21937982	    179.99999979	    367.40380377	     46.09072415	     20.54546315	     13.48701248	     14.50837501	     45.00000000	    -45.00000000	    -45.00000000	    -16.71385101	   1879.98504878	  -4611.09043101	     30.76430779	     21.64350236	   -717.39074279	     33.89090616	     11.34898162	    -20.20222933
      1.05000000	    -42.94497142	     -2.05946144	      2.61240262	    -76.31453162	    795.12668151	     -6.50954670	      6.72809429	    -45.00000000	     45.00000000	    -45.00000000	    -16.12729669	  -2246.69216057	  -1907.33058867	    145.29051501	    179.99999979	    367.65663733	     46.11848117	     20.62720962	     13.27851611	     14.44282516	     45.00000000	    -45.00000000	    -45.00000000	    -17.07318229	   1880.24343793	  -4610.83655427	     30.62878904	     20.91587950	   -716.98702993	     33.39890531	     11.16905335	    -20.26842477
      1.06000000	    -42.93826230	     -2.26393039	      3.00850279	    -79.57911895	    796.23251383	     -6.46810745	      6.81523513	    -45.00000000	     45.00000000	    -45.00000000	    -16.68445681	  -2247.06316743	  -1907.01071083	    145.29336268	    179.99999979	    367.87884655	     46.16661386	     20.79567581	     13.14012030	     14.59622501	     45.00000000	    -45.00000000	    -45.00000000	    -17.62550736	   1880.57820615	  -4610.63451445	     30.50737364	     20.37001074	   -716.77480341	     32.77896360	     11.09983530	    -20.36374508
      1.07000000	    -42.93433688	     -2.30363044	      3.23012000	    -83.02574766	    797.41268946	     -6.42095702	      6.84895662	    -45.00000000	     45.00000000	    -45.00000000	    -17.07091789	  -2247.52937153	  -1906.73610575	    145.18382744	    179.99999979	    368.08514511	     46.19400868	     21.00180660	     12.98656657	     14.58919719	     45.00000000	    -45.00000000	    -45.00000000	    -17.89539950	   1880.99622141	  -4610.53535638	     30.44051825	     19.97884144	   -716.60581272	     32.16660426	     11.06731331	    -20.51369503
      1.08000000	    -42.82633748	     -3.19010369	      4.43422392	    -86.64736781	    798.65796331	     -6.36411283	      7.55565678	    -45.00000000	     45.00000000	    -45.00000000	    -18.78799566	  -2247.95269207	  -1906.27724659	    145.26006953	    179.99999979	    368.39203650	     46.19392856	     20.98612380	     12.74201855	     15.66090810	     45.00000000	    -45.00000000	    -45.00000000	    -20.37931044	   1880.97367217	  -4609.79387551	     30.35985281	     19.78111263	   -716.22111750	     30.89766894	     10.85100147	    -20.35315837
      1.09000000	    -42.90687329	     -2.70222871	      4.00704478	    -90.44919324	    799.96726461	     -6.29284755	      7.03215160	    -45.00000000	     45.00000000	    -45.00000000	    -18.32535744	  -2248.43113446	  -1906.12379917	    145.10216137	    179.99999979	    368.49079098	     46.18905937	     21.38688720	     12.63704058	     14.85823534	     45.00000000	    -45.00000000	    -45.00000000	    -19.19396563	   1881.70607447	  -4610.08414040	     30.27266164	     19.38690002	   -716.25936554	     30.41004355	     11.04911265	    -20.73624952
      1.10000000	    -42.89827948	     -2.72030829	      4.17341852	    -94.42371896	    801.32752777	     -6.20369172	      7.11275637	    -45.00000000	     45.00000000	    -45.00000000	    -18.52951022	  -2248.84203859	  -1905.89263860	    145.17276636	    179.99999979	    368.68828511	     46.20032504	     21.50440669	     12.45716471	     14.85686986	     45.00000000	    -45.00000000	    -45.00000000	    -19.62440664	   1882.05889743	  -4609.90086262	     30.09243881	     18.60195675	   -715.91957839	     29.85541933	     10.87586501	    -20.81796441
      1.11000000	    -42.85934245	     -2.87563861	      4.49771245	    -98.56455206	    802.73144199	     -6.09356345	      7.23109137	    -45.00000000	     45.00000000	    -45.00000000	    -19.18810099	  -2249.20941087	  -1905.62847762	    145.19415323	    179.99999979	    368.87649685	     46.19982657	     21.67987623	     12.25098879	     14.91173288	     45.00000000	    -45.00000000	    -45.00000000	    -20.08277105	   1882.44555833	  -4609.83772346	     29.86558194	     17.79102478	   -715.71284484	     29.20658930	     10.79242861	    -20.96168112
      1.12000000	    -42.83690206	     -3.16208515	      5.01258455	   -102.85466896	    804.16647645	     -5.96169639	      7.34307827	    -45.00000000	     45.00000000	    -45.00000000	    -19.96602629	  -2249.65478598	  -1905.33059523	    145.26203276	    179.99999979	    369.03300318	     46.19725067	     21.81694409	     12.04136554	     15.01407423	     45.00000000	    -45.00000000	    -45.00000000	    -20.89594664	   1882.76426702	  -4609.68175590	     29.62804545	     16.80446689	   -715.45308299	     28.43770764	     10.65674186	    -21.04826008
      1.13000000	    -42.79133530	     -3.29613203	      5.38116847	   -107.26237564	    805.61521802	     -5.80879539	      7.46396880	    -45.00000000	     45.00000000	    -45.00000000	    -20.76989655	  -2250.14605006	  -1905.03339518	    145.20094561	    179.99999979	    369.12764509	     46.19558164	     21.95590692	     11.83453742	     15.13448172	     44.83326728	    -45.00000000	    -45.00000000	    -21.54123616	   1883.09763670	  -4609.58927210	     29.46095995	     15.82017487	   -715.31422282	     27.60659471	     10.56490853	    -21.13960669
      1.14000000	    -42.76036883	     -3.43011368	      5.73360302	   -111.78342572	    807.06945675	     -5.63566743	      7.63355117	    -45.00000000	     45.00000000	    -45.00000000	    -21.66557540	  -2250.64283075	  -1904.71595813	    145.15296185	    179.99999979	    369.25141237	     46.19586522	     22.08181572	     11.65167921	     15.31591189	     44.70145203	    -45.00000000	    -45.00000000	    -22.37001085	   1883.45300414	  -4609.45703594	     29.32931133	     14.81209144	   -715.14694084	     26.69279279	     10.48477521	    -21.20206202
      1.15000000	    -42.63045613	     -4.12572937	      6.75700067	   -116.39112594	    808.51361989	     -5.44313087	      8.57109783	    -45.00000000	     45.00000000	    -45.00000000	    -23.49126572	  -2251.20590904	  -1904.32093023	    145.02667330	    179.99999979	    369.43634201	     46.23558638	     22.15194043	     11.60598668	     16.38914923	     44.39624087	    -45.00000000	    -45.00000000	    -25.25432787	   1883.58066255	  -4608.84464938	     29.47295258	     13.66491561	   -714.63482121	     24.96559447	     10.31441984	    -21.05794619
      1.16000000	    -42.65549533	     -3.96659155	      6.67914013	   -121.07488181	    809.93833672	     -5.23145086	      8.43983602	    -45.00000000	     45.00000000	    -45.00000000	    -23.92080737	  -2251.56451893	  -1904.04625206	    144.99821327	    179.99999979	    369.56747987	     46.21167858	     22.26976750	     11.36006782	     15.99041380	     44.45412673	    -45.00000000	    -45.00000000	    -25.28730334	   1884.09337242	  -4608.93617127	     29.31087911	     12.72737666	   -714.56588229	     23.94567506	     10.49738578	    -21.20436859
